<svg width="1140" height="360" xmlns="http://www.w3.org/2000/svg">

 <g>
  <title>background</title>
  <rect fill="none" id="canvas_background" height="402" width="582" y="-1" x="-1"/>
 </g>
 <g>
  <title>Layer 1</title>
  <path id="svg_1" d="m0,0l1140,0l0,360l-1140,0l0,-360z" fill="#1D4380"/>
  <path id="svg_3" d="m597.026001,128.479004c-6.343018,4.850998 -13.817017,7.212997 -21.237976,7.212997c-10.530029,0 -20.943054,-4.727005 -27.824036,-13.726997c-11.756958,-15.349998 -8.85498,-37.302002 6.522034,-49.064003c6.34198,-4.879997 13.823975,-7.209 21.234985,-7.209c10.529968,0 20.945007,4.727005 27.823975,13.735001c11.76001,15.345001 8.830017,37.302002 -6.518982,49.052002" fill="#59B4D9"/>
  <path id="svg_4" d="m590.594971,106.829002c2.54303,3.316002 7.262024,3.915001 10.559998,1.405998c0.171997,-0.131996 0.304993,-0.291 0.461975,-0.432999c3.373047,2.375999 5.716003,3.945 7.036011,4.844002c0.390991,-1.012001 0.661011,-1.984001 0.937988,-2.999001c-1.394958,-1.038002 -3.280945,-2.489998 -6.006958,-4.698997c0.894958,-2.352005 0.612,-5.097 -1.022034,-7.241005c-2.336975,-3.025002 -6.477966,-3.792999 -9.711975,-1.928001c-3.565002,-3.197998 -7.481995,-6.863998 -11.612976,-10.967995c12.833984,-6.902 21.950989,-5.890999 21.950989,-5.890999c-1.522034,-1.941002 -3.228027,-3.641006 -5.049011,-5.177002c-5.411987,-0.835999 -13.819031,-0.742004 -23.424988,4.366997l-0.002991,-0.003998l-0.001038,0c-3.200989,-3.350998 -6.458984,-6.943001 -9.778015,-10.799004c-1.587952,0.508003 -3.138977,1.137001 -4.638,1.886002c2.449036,4.008003 5.744019,8.050003 9.457031,11.993004l0.023987,0.023994c-3.096008,2.165001 -6.544006,5.059006 -9.723999,8.423004c-0.406006,0.432999 -0.796997,0.867996 -1.179016,1.304001c-1.899963,-0.398003 -3.897949,-0.280998 -5.764954,0.394997c-3.170044,-6.839996 -2.915039,-12.334999 -2.414001,-15.167999c-1.376038,1.442001 -2.662048,2.959 -3.77002,4.574997c-0.828003,3.382004 -1.062988,8.259003 1.379028,14.136002c-2.827026,3.700005 -2.960022,8.945999 -0.007019,12.817001c0.245972,0.320999 0.51001,0.619003 0.782959,0.903c-1.289978,4.392998 -1.866943,8.629997 -2.043945,12.267998l0.66095,1.255005c1.679016,2.153999 3.788025,3.967995 5.825012,5.612c-0.252014,-3.850998 0.02002,-9.529999 2.400024,-15.924004c1.643005,0.125 3.312988,-0.133995 4.877014,-0.792999c0.895996,0.788002 1.833984,1.584999 2.835999,2.396004c3.434998,2.718994 6.860962,4.834999 10.200989,6.501999c-0.174011,1.698997 0.252014,3.463997 1.35498,4.926003c2.359009,3.046997 6.728027,3.615997 9.778015,1.286995c0.633972,-0.486 1.135986,-1.072998 1.552002,-1.702995c5.445984,1.212997 10.203979,1.426994 13.731018,1.426994c0.540955,0 3.047974,-3.410995 4.484985,-5.526001c-2.14801,0.449005 -8.518005,1.325005 -17.223022,-1.175995c-0.209961,-0.977005 -0.612,-1.927002 -1.257019,-2.773003c-2.210999,-2.899002 -6.253967,-3.526001 -9.266968,-1.586998c-3.026001,-1.640999 -6.195007,-3.697998 -9.463013,-6.287003c-0.659973,-0.521996 -1.291992,-1.042999 -1.903015,-1.566002c1.997009,-3.145996 2.210022,-7.178993 0.445007,-10.571999c0.401001,-0.400002 0.794006,-0.801994 1.220032,-1.199997c3.235962,-3.023003 6.279968,-5.443001 9.127991,-7.385002l-0.330017,-0.325996l0.335022,0.318001l-0.002991,0.000999c4.369995,4.041 9.003967,7.870995 13.391968,11.292999c-1.161987,2.460999 -0.97998,5.459 0.786011,7.766998z" fill="#fff"/>
  <path id="svg_5" d="m702.835999,135.690994c-1.724976,0 -3.348999,-0.671997 -4.565002,-1.893005l-28.544006,-28.542992c-1.203003,-1.203003 -1.890991,-2.864006 -1.890991,-4.565002c0,-1.699997 0.689026,-3.362999 1.890991,-4.564003l28.544006,-28.542999c1.218994,-1.220993 2.841003,-1.892998 4.565002,-1.892998c1.723022,0 3.346008,0.672005 4.565002,1.892998l28.539978,28.542999c1.222046,1.215004 1.893005,2.838005 1.893005,4.564003s-0.670959,3.348999 -1.893982,4.568001l-28.538025,28.539993c-1.218994,1.221008 -2.842957,1.893005 -4.565979,1.893005" fill="#55ADD3"/>
  <path id="svg_6" d="m721.893982,95.221001c-3.023987,0 -5.473999,2.449997 -5.473999,5.472c0,1.109001 0.335022,2.138 0.903015,3l-10.841003,10.840996c-0.288025,-0.201996 -0.598022,-0.369995 -0.91803,-0.521996l0,-27.658005c1.634033,-0.945999 2.744995,-2.694 2.744995,-4.717995c0,-3.023003 -2.449951,-5.472 -5.473999,-5.472c-3.020996,0 -5.471008,2.449997 -5.471008,5.472c0,2.023994 1.112,3.771996 2.744019,4.717995l0,27.658005c-0.307007,0.145996 -0.607971,0.302002 -0.88501,0.493996l-10.854004,-10.853996c0.552002,-0.854004 0.879028,-1.865997 0.879028,-2.958c0,-3.023003 -2.450012,-5.472 -5.471008,-5.472c-3.023987,0 -5.473999,2.449997 -5.473999,5.472c0,3.023003 2.450012,5.472 5.473999,5.472c0.627014,0 1.221008,-0.126999 1.783997,-0.321999l11.410034,11.409996c-0.328003,0.767006 -0.51001,1.610001 -0.51001,2.496002c0,3.517998 2.852966,6.371002 6.370972,6.371002c3.52002,0 6.371033,-2.853004 6.371033,-6.371002c0,-0.869003 -0.176025,-1.696999 -0.491028,-2.450996l11.442017,-11.441002c0.549011,0.184998 1.125977,0.307999 1.737,0.307999c3.020996,0 5.471008,-2.449997 5.471008,-5.472c0,-3.023003 -2.447998,-5.473 -5.468018,-5.473z" fill="#fff"/>
  <rect id="svg_7" height="28.946" width="3.532" fill="#fff" opacity="0.5" transform="matrix(.707 -.707 .707 .707 144.067 531.108)" y="77.211" x="711.244"/>
  <rect id="svg_8" height="3.533" width="28.947" fill="#fff" opacity="0.5" transform="matrix(.707 -.707 .707 .707 138.038 516.659)" y="89.936" x="678.208"/>
  <path id="svg_9" d="m706.565979,119.75c0,2.094002 -1.700012,3.792999 -3.794006,3.792999c-2.096008,0 -3.792969,-1.697998 -3.792969,-3.792999s1.69696,-3.792999 3.792969,-3.792999c2.093018,0 3.794006,1.698997 3.794006,3.792999" fill="#B8D432"/>
  <path id="svg_10" d="m705.877991,81.636002c0,1.681 -1.362,3.043999 -3.044006,3.043999c-1.680969,0 -3.044006,-1.362 -3.044006,-3.043999s1.362,-3.043999 3.044006,-3.043999s3.044006,1.362 3.044006,3.043999" fill="#B8D432"/>
  <path id="svg_11" d="m686.822998,100.692001c0,1.681 -1.36499,3.043999 -3.044006,3.043999c-1.680969,0 -3.044006,-1.362 -3.044006,-3.043999s1.362,-3.043999 3.044006,-3.043999c1.679016,0.000999 3.044006,1.362999 3.044006,3.043999" fill="#B8D432"/>
  <path id="svg_12" d="m724.937012,100.692001c0,1.681 -1.36499,3.043999 -3.044983,3.043999s-3.044006,-1.362 -3.044006,-3.043999s1.364014,-3.043999 3.044006,-3.043999c1.679993,0.000999 3.044983,1.362999 3.044983,3.043999" fill="#B8D432"/>
  <path id="svg_13" d="m707.401001,67.584c-1.218994,-1.221001 -2.841003,-1.892998 -4.565002,-1.892998c-1.723022,0 -3.344971,0.671997 -4.564026,1.892998l-28.543945,28.542999c-1.204041,1.200996 -1.893005,2.863998 -1.893005,4.564003c0,1.700996 0.688965,3.363998 1.893005,4.564995l16.159973,16.161003l30.400024,-44.948006l-8.887024,-8.884995z" fill="#69c" opacity="0.1"/>
  <path id="svg_14" d="m803.512024,75.253998l0,50.873001c0,5.281998 11.822998,9.563995 26.405029,9.563995l0,-60.436996l-26.405029,0z" fill="#3999C6"/>
  <path id="svg_15" d="m829.554993,135.690002l0.362,0c14.58197,0 26.405029,-4.279999 26.405029,-9.562996l0,-50.873001l-26.767029,0l0,60.435997z" fill="#59B4D9"/>
  <path id="svg_16" d="m856.322021,75.253998c0,5.281998 -11.822998,9.563004 -26.405029,9.563004s-26.404968,-4.281006 -26.404968,-9.563004s11.822998,-9.563004 26.404968,-9.563004s26.405029,4.282005 26.405029,9.563004" fill="#fff"/>
  <path id="svg_17" d="m850.924011,74.703003c0,3.487 -9.405029,6.309998 -21.005981,6.309998s-21.007996,-2.822998 -21.007996,-6.309998c0,-3.485001 9.406006,-6.309998 21.007996,-6.309998c11.600952,0 21.005981,2.824997 21.005981,6.309998" fill="#7FBA00"/>
  <path id="svg_18" d="m846.52301,78.558998c2.75,-1.066002 4.401978,-2.402 4.401978,-3.852997c0,-3.487 -9.404968,-6.311005 -21.007996,-6.311005c-11.600952,0 -21.006958,2.825005 -21.006958,6.311005c0,1.450996 1.652954,2.786995 4.401978,3.852997c3.840027,-1.490997 9.84198,-2.453003 16.604004,-2.453003c6.765015,0.000999 12.763977,0.963005 16.606995,2.453003" fill="#B8D432"/>
  <path id="svg_19" d="m846.982971,116.503998c-1.413025,1.178001 -3.328003,1.768997 -5.815002,1.768997l-8.297974,0l0,-21.642998l7.870972,0c2.478027,0 4.377014,0.452003 5.682983,1.389c1.223022,0.878998 1.835999,2.109001 1.835999,3.68c0,1.251999 -0.44696,2.317001 -1.357971,3.253998c-0.776001,0.775002 -1.708984,1.310005 -2.858032,1.624001l0,0.051003c1.54303,0.190002 2.802002,0.778 3.740051,1.764999c0.877991,0.936996 1.329956,2.085999 1.329956,3.415001c0.005005,1.978996 -0.716003,3.528999 -2.130981,4.695999m-20.223022,-1.275002c-2.076965,2.030998 -4.880005,3.043999 -8.377991,3.043999l-7.661011,0l0,-21.642998l7.661011,0c7.684998,0 11.528015,3.498001 11.528015,10.538002c0,3.364998 -1.039001,6.058998 -3.150024,8.060997" fill="#fff"/>
  <path id="svg_20" d="m817.981995,100.580002l-2.401001,0l0,13.740997l2.429016,0c2.133972,0 3.787964,-0.667999 5.011963,-1.947998c1.171997,-1.280998 1.765015,-2.987999 1.765015,-5.148003c0,-2.026993 -0.593018,-3.625 -1.737976,-4.807999c-1.200989,-1.223 -2.882019,-1.836998 -5.067017,-1.836998" fill="#3999C6"/>
  <path id="svg_21" d="m842.232971,104.612999c0.585999,-0.510002 0.879028,-1.178001 0.879028,-2.005997c0,-1.605003 -1.172058,-2.403 -3.550049,-2.403l-1.833984,0l0,5.127998l2.160034,0c0.987,0 1.786987,-0.247002 2.344971,-0.719002" fill="#59B4D9"/>
  <path id="svg_22" d="m843.034973,109.703003c-0.642029,-0.477997 -1.515991,-0.747002 -2.643982,-0.747002l-2.666992,0l0,5.708l2.640991,0c1.122986,0 2.026978,-0.265999 2.695007,-0.799995c0.612976,-0.535004 0.930969,-1.224007 0.930969,-2.134003c0.005981,-0.854004 -0.313965,-1.548004 -0.955994,-2.027" fill="#59B4D9"/>
  <path id="svg_23" d="m922,127.850998c0,1.399994 0.97998,2.660004 2.659973,2.660004l64.680054,0c1.399963,0 2.659973,-0.980011 2.659973,-2.660004l0,-46.339996l-70,0l0,46.339996z" fill="#A0A1A2"/>
  <path id="svg_24" d="m989.340027,70.871002l-64.679993,0c-1.679993,0 -2.660034,1.260002 -2.660034,2.659996l0,7.980003l70,0l0,-7.980003c0,-1.399994 -0.97998,-2.659996 -2.659973,-2.659996" fill="#7A7A7A"/>
  <rect id="svg_25" height="10.64" width="17.64" fill="#fff" y="86.131" x="948.32"/>
  <rect id="svg_26" height="10.64" width="17.64" fill="#FCD116" y="100.551" x="948.32"/>
  <rect id="svg_27" height="10.64" width="17.64" fill="#FCD116" y="100.551" x="969.32"/>
  <rect id="svg_28" height="10.64" width="17.64" fill="#fff" y="86.131" x="969.32"/>
  <rect id="svg_29" height="10.64" width="17.64" fill="#fff" y="86.131" x="927.32"/>
  <rect id="svg_30" height="10.64" width="17.64" fill="#fff" y="100.551" x="927.32"/>
  <rect id="svg_31" height="10.64" width="17.64" fill="#FCD116" y="114.831" x="927.32"/>
  <rect id="svg_32" height="10.64" width="17.64" fill="#FCD116" y="114.831" x="948.32"/>
  <rect id="svg_33" height="10.64" width="17.64" fill="#FCD116" y="114.831" x="969.32"/>
  <path id="svg_34" d="m924.659973,70.871002c-1.26001,0 -2.659973,1.260002 -2.659973,2.659996l0,54.320007c0,1.400002 1.399963,2.659996 2.659973,2.659996l2.940002,0l55.440002,-59.639999l-58.380005,0z" fill="#fff" opacity="0.2"/>
  <text font-weight="normal" xml:space="preserve" text-anchor="start" font-family="Helvetica, Arial, sans-serif" font-size="43" id="svg_35" y="115.950012" x="55.5" stroke-opacity="null" stroke-width="0" stroke="null" fill="#ffffff">Portfolio Management</text>
  <line stroke-linecap="null" stroke-linejoin="null" id="svg_36" y2="141.950012" x2="502.5" y1="59.950012" x1="503.5" fill-opacity="null" stroke-width="null" stroke="#ffffff" fill="none"/>
  <path id="svg_37" d="m57.5,545.950012" opacity="0.5" fill-opacity="null" stroke-width="null" stroke="#ffffff" fill="none"/>
 </g>
</svg>